%TF.GenerationSoftware,KiCad,Pcbnew,9.0.0*%
%TF.CreationDate,2025-04-13T23:06:23-05:00*%
%TF.ProjectId,temperature_sensor,74656d70-6572-4617-9475-72655f73656e,rev?*%
%TF.SameCoordinates,Original*%
%TF.FileFunction,Paste,Top*%
%TF.FilePolarity,Positive*%
%FSLAX46Y46*%
G04 Gerber Fmt 4.6, Leading zero omitted, Abs format (unit mm)*
G04 Created by KiCad (PCBNEW 9.0.0) date 2025-04-13 23:06:23*
%MOMM*%
%LPD*%
G01*
G04 APERTURE LIST*
G04 Aperture macros list*
%AMRoundRect*
0 Rectangle with rounded corners*
0 $1 Rounding radius*
0 $2 $3 $4 $5 $6 $7 $8 $9 X,Y pos of 4 corners*
0 Add a 4 corners polygon primitive as box body*
4,1,4,$2,$3,$4,$5,$6,$7,$8,$9,$2,$3,0*
0 Add four circle primitives for the rounded corners*
1,1,$1+$1,$2,$3*
1,1,$1+$1,$4,$5*
1,1,$1+$1,$6,$7*
1,1,$1+$1,$8,$9*
0 Add four rect primitives between the rounded corners*
20,1,$1+$1,$2,$3,$4,$5,0*
20,1,$1+$1,$4,$5,$6,$7,0*
20,1,$1+$1,$6,$7,$8,$9,0*
20,1,$1+$1,$8,$9,$2,$3,0*%
G04 Aperture macros list end*
%ADD10R,0.558800X1.270000*%
%ADD11RoundRect,0.237500X0.237500X-0.300000X0.237500X0.300000X-0.237500X0.300000X-0.237500X-0.300000X0*%
%ADD12RoundRect,0.237500X0.300000X0.237500X-0.300000X0.237500X-0.300000X-0.237500X0.300000X-0.237500X0*%
%ADD13R,1.070000X3.420000*%
%ADD14RoundRect,0.237500X-0.300000X-0.237500X0.300000X-0.237500X0.300000X0.237500X-0.300000X0.237500X0*%
%ADD15RoundRect,0.500000X-0.500000X0.875000X-0.500000X-0.875000X0.500000X-0.875000X0.500000X0.875000X0*%
%ADD16RoundRect,0.275000X-0.975000X-0.275000X0.975000X-0.275000X0.975000X0.275000X-0.975000X0.275000X0*%
%ADD17C,1.700000*%
G04 APERTURE END LIST*
D10*
%TO.C,U1*%
X113047500Y-88082800D03*
X114952500Y-88082800D03*
X114000000Y-86000000D03*
%TD*%
D11*
%TO.C,C10*%
X71000000Y-91500000D03*
X71000000Y-89775000D03*
%TD*%
D12*
%TO.C,RF_interceptor1*%
X177132500Y-37960000D03*
X175407500Y-37960000D03*
%TD*%
D11*
%TO.C,C11*%
X77500000Y-91500000D03*
X77500000Y-89775000D03*
%TD*%
%TO.C,C4*%
X62000000Y-91362500D03*
X62000000Y-89637500D03*
%TD*%
%TO.C,C12*%
X74000000Y-91500000D03*
X74000000Y-89775000D03*
%TD*%
%TO.C,C5*%
X58500000Y-91362500D03*
X58500000Y-89637500D03*
%TD*%
D13*
%TO.C,R4*%
X132000000Y-87500000D03*
X125890000Y-87500000D03*
%TD*%
D14*
%TO.C,C7*%
X65000000Y-95000000D03*
X66725000Y-95000000D03*
%TD*%
D15*
%TO.C,U3*%
X187281700Y-85588000D03*
X184741700Y-85588000D03*
X182201700Y-85588000D03*
X179661700Y-85588000D03*
X177121700Y-85588000D03*
X174581700Y-85588000D03*
X172041700Y-85588000D03*
X172041700Y-101753000D03*
X174581700Y-101753000D03*
X177121700Y-101753000D03*
X179661700Y-101753000D03*
X182201700Y-101753000D03*
X184741700Y-101753000D03*
X187281700Y-101753000D03*
D16*
X171022000Y-92500000D03*
X171022000Y-95040000D03*
D17*
X188040000Y-92500000D03*
X188040000Y-95040000D03*
X185500000Y-92500000D03*
X185500000Y-95040000D03*
%TD*%
D11*
%TO.C,C9*%
X81000000Y-91500000D03*
X81000000Y-89775000D03*
%TD*%
%TO.C,C8*%
X65500000Y-91362500D03*
X65500000Y-89637500D03*
%TD*%
%TO.C,C6*%
X55500000Y-91362500D03*
X55500000Y-89637500D03*
%TD*%
M02*
