%TF.GenerationSoftware,KiCad,Pcbnew,9.0.0*%
%TF.CreationDate,2025-04-13T23:06:23-05:00*%
%TF.ProjectId,temperature_sensor,74656d70-6572-4617-9475-72655f73656e,rev?*%
%TF.SameCoordinates,Original*%
%TF.FileFunction,Soldermask,Bot*%
%TF.FilePolarity,Negative*%
%FSLAX46Y46*%
G04 Gerber Fmt 4.6, Leading zero omitted, Abs format (unit mm)*
G04 Created by KiCad (PCBNEW 9.0.0) date 2025-04-13 23:06:23*
%MOMM*%
%LPD*%
G01*
G04 APERTURE LIST*
%ADD10C,2.400000*%
%ADD11O,4.000000X2.000000*%
%ADD12C,1.100000*%
%ADD13R,1.100000X1.100000*%
%ADD14C,2.000000*%
%ADD15C,1.778000*%
%ADD16R,1.800000X1.800000*%
%ADD17C,1.800000*%
%ADD18C,2.550000*%
%ADD19R,1.371600X1.371600*%
%ADD20C,1.371600*%
%ADD21C,1.500000*%
%ADD22R,1.308000X1.308000*%
%ADD23C,1.308000*%
%ADD24R,1.158000X1.158000*%
%ADD25C,1.158000*%
%ADD26R,1.270000X1.270000*%
%ADD27C,1.270000*%
G04 APERTURE END LIST*
D10*
%TO.C,DS1*%
X119048300Y-78497000D03*
X46648300Y-78497000D03*
D11*
X112848300Y-77707000D03*
X52848300Y-77707000D03*
D12*
X65703300Y-80447000D03*
X66973300Y-80447000D03*
X68243300Y-80447000D03*
X69513300Y-80447000D03*
X70783300Y-80447000D03*
X72053300Y-80447000D03*
X73323300Y-80447000D03*
X74593300Y-80447000D03*
X75863300Y-80447000D03*
X77133300Y-80447000D03*
X78403300Y-80447000D03*
X79673300Y-80447000D03*
X80943300Y-80447000D03*
X82213300Y-80447000D03*
X83483300Y-80447000D03*
X84753300Y-80447000D03*
X86023300Y-80447000D03*
X87293300Y-80447000D03*
X88563300Y-80447000D03*
X89833300Y-80447000D03*
X91103300Y-80447000D03*
X92373300Y-80447000D03*
X93643300Y-80447000D03*
X94913300Y-80447000D03*
X96183300Y-80447000D03*
X97453300Y-80447000D03*
X98723300Y-80447000D03*
D13*
X99993300Y-80447000D03*
%TD*%
D14*
%TO.C,TP7*%
X49000000Y-119000000D03*
%TD*%
%TO.C,TP6*%
X56000000Y-119000000D03*
%TD*%
%TO.C,TP2*%
X63000000Y-119000000D03*
%TD*%
%TO.C,TP5*%
X63000000Y-112000000D03*
%TD*%
%TO.C,TP4*%
X56000000Y-112000000D03*
%TD*%
D15*
%TO.C,SW1*%
X171599999Y-56500000D03*
X176300000Y-56500000D03*
X181000000Y-56500000D03*
%TD*%
D14*
%TO.C,TP3*%
X63000000Y-105000000D03*
%TD*%
%TO.C,TP9*%
X49000000Y-105000000D03*
%TD*%
%TO.C,TP1*%
X49000000Y-112000000D03*
%TD*%
D16*
%TO.C,R1*%
X134250000Y-76750000D03*
D17*
X137750000Y-76750000D03*
X134250000Y-33250000D03*
D18*
X131750000Y-71400000D03*
X140250000Y-72600000D03*
X131750000Y-38600000D03*
X140250000Y-37400000D03*
%TD*%
D19*
%TO.C,R3*%
X150158000Y-38500000D03*
D20*
X161842000Y-38500000D03*
%TD*%
D14*
%TO.C,TP8*%
X56000000Y-105000000D03*
%TD*%
D21*
%TO.C,S1*%
X173400000Y-68000000D03*
X181600000Y-68000000D03*
D22*
X175500000Y-68000000D03*
D23*
X177500000Y-68000000D03*
X179500000Y-68000000D03*
%TD*%
D24*
%TO.C,R2*%
X157500000Y-28500000D03*
D25*
X154100000Y-28500000D03*
%TD*%
D26*
%TO.C,U5*%
X175000000Y-30000000D03*
D27*
X176270000Y-27460000D03*
X177540000Y-30000000D03*
%TD*%
M02*
