%TF.GenerationSoftware,KiCad,Pcbnew,9.0.0*%
%TF.CreationDate,2025-04-13T23:06:23-05:00*%
%TF.ProjectId,temperature_sensor,74656d70-6572-4617-9475-72655f73656e,rev?*%
%TF.SameCoordinates,Original*%
%TF.FileFunction,Copper,L2,Bot*%
%TF.FilePolarity,Positive*%
%FSLAX46Y46*%
G04 Gerber Fmt 4.6, Leading zero omitted, Abs format (unit mm)*
G04 Created by KiCad (PCBNEW 9.0.0) date 2025-04-13 23:06:23*
%MOMM*%
%LPD*%
G01*
G04 APERTURE LIST*
%TA.AperFunction,ComponentPad*%
%ADD10C,2.400000*%
%TD*%
%TA.AperFunction,ComponentPad*%
%ADD11O,4.000000X2.000000*%
%TD*%
%TA.AperFunction,ComponentPad*%
%ADD12C,1.100000*%
%TD*%
%TA.AperFunction,ComponentPad*%
%ADD13R,1.100000X1.100000*%
%TD*%
%TA.AperFunction,ComponentPad*%
%ADD14C,2.000000*%
%TD*%
%TA.AperFunction,ComponentPad*%
%ADD15C,1.778000*%
%TD*%
%TA.AperFunction,ComponentPad*%
%ADD16R,1.800000X1.800000*%
%TD*%
%TA.AperFunction,ComponentPad*%
%ADD17C,1.800000*%
%TD*%
%TA.AperFunction,ComponentPad*%
%ADD18C,2.550000*%
%TD*%
%TA.AperFunction,ComponentPad*%
%ADD19R,1.371600X1.371600*%
%TD*%
%TA.AperFunction,ComponentPad*%
%ADD20C,1.371600*%
%TD*%
%TA.AperFunction,ComponentPad*%
%ADD21R,1.308000X1.308000*%
%TD*%
%TA.AperFunction,ComponentPad*%
%ADD22C,1.308000*%
%TD*%
%TA.AperFunction,ComponentPad*%
%ADD23R,1.158000X1.158000*%
%TD*%
%TA.AperFunction,ComponentPad*%
%ADD24C,1.158000*%
%TD*%
%TA.AperFunction,ComponentPad*%
%ADD25R,1.270000X1.270000*%
%TD*%
%TA.AperFunction,ComponentPad*%
%ADD26C,1.270000*%
%TD*%
%TA.AperFunction,ViaPad*%
%ADD27C,0.600000*%
%TD*%
%TA.AperFunction,Conductor*%
%ADD28C,0.250000*%
%TD*%
G04 APERTURE END LIST*
D10*
%TO.P,DS1,S2*%
%TO.N,N/C*%
X119048300Y-78497000D03*
%TO.P,DS1,S1*%
X46648300Y-78497000D03*
D11*
%TO.P,DS1,K,K*%
%TO.N,Net-(U1-COLLECTOR)*%
X112848300Y-77707000D03*
%TO.P,DS1,A,A*%
%TO.N,Net-(DS1-C86)*%
X52848300Y-77707000D03*
D12*
%TO.P,DS1,28,P/S*%
%TO.N,GND*%
X65703300Y-80447000D03*
%TO.P,DS1,27,C86*%
%TO.N,Net-(DS1-C86)*%
X66973300Y-80447000D03*
%TO.P,DS1,26,V0*%
%TO.N,Net-(DS1-V0)*%
X68243300Y-80447000D03*
%TO.P,DS1,25,V1*%
%TO.N,Net-(DS1-V1)*%
X69513300Y-80447000D03*
%TO.P,DS1,24,V2*%
%TO.N,Net-(DS1-V2)*%
X70783300Y-80447000D03*
%TO.P,DS1,23,V3*%
%TO.N,Net-(DS1-V3)*%
X72053300Y-80447000D03*
%TO.P,DS1,22,V4*%
%TO.N,Net-(DS1-V4)*%
X73323300Y-80447000D03*
%TO.P,DS1,21,CAP2N*%
%TO.N,Net-(DS1-CAP2N)*%
X74593300Y-80447000D03*
%TO.P,DS1,20,CAP2P*%
%TO.N,Net-(DS1-CAP2P)*%
X75863300Y-80447000D03*
%TO.P,DS1,19,CAP1P*%
%TO.N,Net-(DS1-CAP1P)*%
X77133300Y-80447000D03*
%TO.P,DS1,18,CAP1N*%
%TO.N,Net-(DS1-CAP1N)*%
X78403300Y-80447000D03*
%TO.P,DS1,17,CAP3P*%
%TO.N,Net-(DS1-CAP3P)*%
X79673300Y-80447000D03*
%TO.P,DS1,16,VOUT*%
%TO.N,Net-(DS1-VOUT)*%
X80943300Y-80447000D03*
%TO.P,DS1,15,VSS*%
%TO.N,GND*%
X82213300Y-80447000D03*
%TO.P,DS1,14,VDD*%
%TO.N,Net-(DS1-C86)*%
X83483300Y-80447000D03*
%TO.P,DS1,13,DB7*%
%TO.N,Net-(DS1-DB7)*%
X84753300Y-80447000D03*
%TO.P,DS1,12,DB6*%
%TO.N,Net-(DS1-DB6)*%
X86023300Y-80447000D03*
%TO.P,DS1,11,DB5*%
%TO.N,unconnected-(DS1-DB5-Pad11)*%
X87293300Y-80447000D03*
%TO.P,DS1,10,DB4*%
%TO.N,unconnected-(DS1-DB4-Pad10)*%
X88563300Y-80447000D03*
%TO.P,DS1,9,DB3*%
%TO.N,unconnected-(DS1-DB3-Pad9)*%
X89833300Y-80447000D03*
%TO.P,DS1,8,DB2*%
%TO.N,unconnected-(DS1-DB2-Pad8)*%
X91103300Y-80447000D03*
%TO.P,DS1,7,DB1*%
%TO.N,unconnected-(DS1-DB1-Pad7)*%
X92373300Y-80447000D03*
%TO.P,DS1,6,DB0*%
%TO.N,unconnected-(DS1-DB0-Pad6)*%
X93643300Y-80447000D03*
%TO.P,DS1,5,~{RD}/E*%
%TO.N,Net-(DS1-C86)*%
X94913300Y-80447000D03*
%TO.P,DS1,4,~{WR}/R/W*%
%TO.N,Net-(DS1-~{WR}{slash}R{slash}W)*%
X96183300Y-80447000D03*
%TO.P,DS1,3,A0*%
%TO.N,Net-(DS1-A0)*%
X97453300Y-80447000D03*
%TO.P,DS1,2,~{RES}*%
%TO.N,Net-(DS1-~{RES})*%
X98723300Y-80447000D03*
D13*
%TO.P,DS1,1,~{CS1}*%
%TO.N,Net-(DS1-~{CS1})*%
X99993300Y-80447000D03*
%TD*%
D14*
%TO.P,TP7,1,1*%
%TO.N,Net-(DS1-DB7)*%
X49000000Y-119000000D03*
%TD*%
%TO.P,TP6,1,1*%
%TO.N,Net-(DS1-DB6)*%
X56000000Y-119000000D03*
%TD*%
%TO.P,TP2,1,1*%
%TO.N,/bc2*%
X63000000Y-119000000D03*
%TD*%
%TO.P,TP5,1,1*%
%TO.N,Net-(U1-COLLECTOR)*%
X63000000Y-112000000D03*
%TD*%
%TO.P,TP4,1,1*%
%TO.N,Net-(U1-BASE)*%
X56000000Y-112000000D03*
%TD*%
D15*
%TO.P,SW1,1,1*%
%TO.N,/bc1*%
X171599999Y-56500000D03*
%TO.P,SW1,2,2*%
%TO.N,Net-(U3-PA5_A9_D9_MISO)*%
X176300000Y-56500000D03*
%TO.P,SW1,3,3*%
%TO.N,/bc2*%
X181000000Y-56500000D03*
%TD*%
D14*
%TO.P,TP3,1,1*%
%TO.N,/bc1*%
X63000000Y-105000000D03*
%TD*%
%TO.P,TP9,1,1*%
%TO.N,Net-(DS1-C86)*%
X49000000Y-105000000D03*
%TD*%
%TO.P,TP1,1,1*%
%TO.N,GND*%
X49000000Y-112000000D03*
%TD*%
D16*
%TO.P,R1,1*%
%TO.N,GND*%
X134250000Y-76750000D03*
D17*
%TO.P,R1,2*%
%TO.N,/bc2*%
X137750000Y-76750000D03*
%TO.P,R1,3*%
%TO.N,Net-(DS1-C86)*%
X134250000Y-33250000D03*
D18*
%TO.P,R1,SH1,SHIELD*%
%TO.N,GND*%
X131750000Y-71400000D03*
%TO.P,R1,SH2,SHIELD__1*%
X140250000Y-72600000D03*
%TO.P,R1,SH3,SHIELD__2*%
X131750000Y-38600000D03*
%TO.P,R1,SH4,SHIELD__3*%
X140250000Y-37400000D03*
%TD*%
D19*
%TO.P,R3,1*%
%TO.N,/bc1*%
X150158000Y-38500000D03*
D20*
%TO.P,R3,2*%
%TO.N,GND*%
X161842000Y-38500000D03*
%TD*%
D14*
%TO.P,TP8,1,1*%
%TO.N,Net-(U3-PA7_A8_D8_SCK)*%
X56000000Y-105000000D03*
%TD*%
D21*
%TO.P,S1,1,1*%
%TO.N,Net-(DS1-C86)*%
X175500000Y-68000000D03*
D22*
%TO.P,S1,2,2*%
%TO.N,Net-(U3-PA7_A8_D8_SCK)*%
X177500000Y-68000000D03*
%TO.P,S1,3,3*%
%TO.N,GND*%
X179500000Y-68000000D03*
%TD*%
D23*
%TO.P,R2,1*%
%TO.N,Net-(DS1-C86)*%
X157500000Y-28500000D03*
D24*
%TO.P,R2,2*%
%TO.N,/bc1*%
X154100000Y-28500000D03*
%TD*%
D25*
%TO.P,U5,1,+VS*%
%TO.N,Net-(DS1-C86)*%
X175000000Y-30000000D03*
D26*
%TO.P,U5,2,VOUT*%
%TO.N,Net-(U3-PA4_A1_D1)*%
X176270000Y-27460000D03*
%TO.P,U5,3,GND*%
%TO.N,GND*%
X177540000Y-30000000D03*
%TD*%
D27*
%TO.N,Net-(U1-BASE)*%
X119500000Y-90500000D03*
%TO.N,Net-(DS1-V0)*%
X61500000Y-78875000D03*
X67500000Y-78875000D03*
%TO.N,Net-(DS1-V1)*%
X58500000Y-89637500D03*
X68934313Y-81875000D03*
%TO.N,Net-(DS1-V2)*%
X69500000Y-82500000D03*
X55500000Y-89637500D03*
%TO.N,Net-(DS1-V3)*%
X66725000Y-95000000D03*
X71000000Y-82500000D03*
%TO.N,Net-(DS1-V4)*%
X65500000Y-89637500D03*
X72500000Y-82875000D03*
%TO.N,Net-(DS1-CAP2N)*%
X74000000Y-91500000D03*
X74000000Y-82875000D03*
%TO.N,Net-(DS1-CAP2P)*%
X74000000Y-89775000D03*
X75000000Y-82875000D03*
%TO.N,Net-(DS1-CAP1P)*%
X71000000Y-91500000D03*
X76500000Y-82500000D03*
%TO.N,Net-(DS1-CAP1N)*%
X76500000Y-88000000D03*
X77500000Y-91500000D03*
X77500000Y-82500000D03*
%TO.N,Net-(DS1-CAP3P)*%
X78500000Y-82500000D03*
X77500000Y-89775000D03*
%TO.N,Net-(DS1-VOUT)*%
X81000000Y-91500000D03*
X79388208Y-82388208D03*
%TO.N,Net-(DS1-A0)*%
X142500000Y-54000000D03*
X164000000Y-62500000D03*
X156000000Y-73500000D03*
%TO.N,Net-(DS1-~{RES})*%
X107000000Y-111500000D03*
%TO.N,Net-(DS1-DB7)*%
X162500000Y-93000000D03*
X109500000Y-88500000D03*
%TO.N,Net-(DS1-DB6)*%
X174500000Y-83000000D03*
X170000000Y-71000000D03*
X155000000Y-62500000D03*
X128500000Y-68500000D03*
X50500000Y-79500000D03*
%TO.N,Net-(DS1-DB7)*%
X83500000Y-76000000D03*
%TO.N,/bc2*%
X145000000Y-82000000D03*
X142500000Y-106500000D03*
X142000000Y-112000000D03*
X142500000Y-102500000D03*
%TO.N,Net-(U1-COLLECTOR)*%
X96500000Y-98000000D03*
%TO.N,Net-(U1-BASE)*%
X108000000Y-115000000D03*
X111000000Y-89500000D03*
%TO.N,/bc1*%
X114500000Y-90500000D03*
%TO.N,/bc2*%
X142000000Y-76500000D03*
X182000000Y-51500000D03*
%TO.N,Net-(DS1-~{CS1})*%
X150500000Y-80000000D03*
%TO.N,Net-(U3-PA02_A0_D0)*%
X137000000Y-86000000D03*
X186500000Y-72500000D03*
%TO.N,Net-(U3-PA7_A8_D8_SCK)*%
X164500000Y-104000000D03*
X164500000Y-71975000D03*
%TO.N,Net-(DS1-~{WR}{slash}R{slash}W)*%
X108500000Y-97000000D03*
%TO.N,Net-(U3-PA5_A9_D9_MISO)*%
X177000000Y-62500000D03*
X165500000Y-105000000D03*
%TO.N,/bc1*%
X149000000Y-31500000D03*
%TO.N,*%
X106500000Y-65000000D03*
X60000000Y-65000000D03*
%TD*%
D28*
%TO.N,Net-(U1-BASE)*%
X118500000Y-89500000D02*
X111000000Y-89500000D01*
X119500000Y-90500000D02*
X118500000Y-89500000D01*
%TO.N,Net-(DS1-V0)*%
X67500000Y-78875000D02*
X61500000Y-78875000D01*
%TO.N,Net-(DS1-V1)*%
X57874000Y-90263500D02*
X58500000Y-89637500D01*
X55240702Y-90263500D02*
X57874000Y-90263500D01*
X54874000Y-89896798D02*
X55240702Y-90263500D01*
X54874000Y-89378202D02*
X54874000Y-89896798D01*
X62377202Y-81875000D02*
X54874000Y-89378202D01*
X68934313Y-81875000D02*
X62377202Y-81875000D01*
%TO.N,Net-(DS1-V2)*%
X62637500Y-82500000D02*
X55500000Y-89637500D01*
X69500000Y-82500000D02*
X62637500Y-82500000D01*
%TO.N,Net-(DS1-V3)*%
X64874000Y-88626000D02*
X64874000Y-93149000D01*
X71000000Y-82500000D02*
X64874000Y-88626000D01*
X64874000Y-93149000D02*
X66725000Y-95000000D01*
%TO.N,Net-(DS1-V4)*%
X72262500Y-82875000D02*
X65500000Y-89637500D01*
X72500000Y-82875000D02*
X72262500Y-82875000D01*
%TO.N,Net-(DS1-CAP2N)*%
X69500000Y-93500000D02*
X72000000Y-93500000D01*
X69500000Y-87000000D02*
X69500000Y-93500000D01*
X72000000Y-93500000D02*
X74000000Y-91500000D01*
X73625000Y-82875000D02*
X69500000Y-87000000D01*
X74000000Y-82875000D02*
X73625000Y-82875000D01*
%TO.N,Net-(DS1-CAP2P)*%
X71649000Y-92126000D02*
X74000000Y-89775000D01*
X70740702Y-92126000D02*
X71649000Y-92126000D01*
X70374000Y-87501000D02*
X70374000Y-91759298D01*
X70374000Y-91759298D02*
X70740702Y-92126000D01*
X75000000Y-82875000D02*
X70374000Y-87501000D01*
%TO.N,Net-(DS1-CAP1P)*%
X71000000Y-88000000D02*
X71000000Y-91500000D01*
X76500000Y-82500000D02*
X71000000Y-88000000D01*
%TO.N,Net-(DS1-CAP1N)*%
X76500000Y-88000000D02*
X76500000Y-90500000D01*
X76500000Y-90500000D02*
X77500000Y-91500000D01*
X76500000Y-83500000D02*
X76500000Y-88000000D01*
X77500000Y-82500000D02*
X76500000Y-83500000D01*
%TO.N,Net-(DS1-CAP3P)*%
X78500000Y-82500000D02*
X78500000Y-88775000D01*
X78500000Y-88775000D02*
X77500000Y-89775000D01*
%TO.N,Net-(DS1-VOUT)*%
X79388208Y-82388208D02*
X79388208Y-89888208D01*
X79388208Y-89888208D02*
X81000000Y-91500000D01*
%TO.N,Net-(DS1-A0)*%
X142500000Y-54000000D02*
X123900300Y-54000000D01*
X164000000Y-65500000D02*
X164000000Y-62500000D01*
X123900300Y-54000000D02*
X97453300Y-80447000D01*
X156000000Y-73500000D02*
X164000000Y-65500000D01*
%TO.N,Net-(DS1-~{RES})*%
X109126000Y-109374000D02*
X109126000Y-91627517D01*
X107000000Y-111500000D02*
X109126000Y-109374000D01*
X98723300Y-81224817D02*
X98723300Y-80447000D01*
X109126000Y-91627517D02*
X98723300Y-81224817D01*
%TO.N,Net-(DS1-DB7)*%
X152374000Y-103126000D02*
X162500000Y-93000000D01*
X127614702Y-88500000D02*
X142240702Y-103126000D01*
X109500000Y-88500000D02*
X127614702Y-88500000D01*
X142240702Y-103126000D02*
X152374000Y-103126000D01*
%TO.N,Net-(DS1-DB6)*%
X170000000Y-77500000D02*
X174500000Y-82000000D01*
X174500000Y-82000000D02*
X174500000Y-83000000D01*
X170000000Y-73500000D02*
X170000000Y-77500000D01*
X170000000Y-71000000D02*
X170000000Y-73500000D01*
X149000000Y-68500000D02*
X155000000Y-62500000D01*
X128500000Y-68500000D02*
X149000000Y-68500000D01*
X86023300Y-77638002D02*
X86023300Y-80447000D01*
X83240702Y-75374000D02*
X83759298Y-75374000D01*
X79114702Y-79500000D02*
X83240702Y-75374000D01*
X50500000Y-79500000D02*
X79114702Y-79500000D01*
X83759298Y-75374000D02*
X86023300Y-77638002D01*
%TO.N,Net-(DS1-DB7)*%
X83500000Y-76000000D02*
X83500000Y-79193700D01*
X83500000Y-79193700D02*
X84753300Y-80447000D01*
%TO.N,/bc2*%
X147626000Y-79374000D02*
X145000000Y-82000000D01*
X150759298Y-79374000D02*
X147626000Y-79374000D01*
X151126000Y-79740702D02*
X150759298Y-79374000D01*
X151126000Y-93874000D02*
X151126000Y-79740702D01*
X142500000Y-102500000D02*
X151126000Y-93874000D01*
X142500000Y-111500000D02*
X142500000Y-106500000D01*
X142000000Y-112000000D02*
X142500000Y-111500000D01*
%TO.N,Net-(U1-COLLECTOR)*%
X82500000Y-112000000D02*
X63000000Y-112000000D01*
X96500000Y-98000000D02*
X82500000Y-112000000D01*
%TO.N,Net-(U1-BASE)*%
X109500000Y-115000000D02*
X108000000Y-115000000D01*
X111000000Y-113500000D02*
X110500000Y-114000000D01*
X110500000Y-114000000D02*
X109500000Y-115000000D01*
X111000000Y-89500000D02*
X111000000Y-113500000D01*
%TO.N,/bc1*%
X151169800Y-39511800D02*
X150158000Y-38500000D01*
X170897098Y-39511800D02*
X151169800Y-39511800D01*
X187126000Y-55740702D02*
X170897098Y-39511800D01*
X187126000Y-84259298D02*
X187126000Y-55740702D01*
X165759298Y-105626000D02*
X187126000Y-84259298D01*
X129626000Y-105626000D02*
X165759298Y-105626000D01*
X114500000Y-90500000D02*
X129626000Y-105626000D01*
%TO.N,/bc2*%
X167000000Y-51500000D02*
X182000000Y-51500000D01*
X142000000Y-76500000D02*
X167000000Y-51500000D01*
%TO.N,Net-(DS1-~{CS1})*%
X150500000Y-80000000D02*
X143874000Y-86626000D01*
X106172300Y-86626000D02*
X99993300Y-80447000D01*
X143874000Y-86626000D02*
X106172300Y-86626000D01*
%TO.N,Net-(U3-PA02_A0_D0)*%
X161126000Y-61874000D02*
X137000000Y-86000000D01*
X186500000Y-71114702D02*
X177259298Y-61874000D01*
X186500000Y-72500000D02*
X186500000Y-71114702D01*
X177259298Y-61874000D02*
X161126000Y-61874000D01*
%TO.N,Net-(U3-PA7_A8_D8_SCK)*%
X164500000Y-71975000D02*
X164500000Y-104000000D01*
%TO.N,Net-(DS1-~{WR}{slash}R{slash}W)*%
X108500000Y-97000000D02*
X108500000Y-92763700D01*
X108500000Y-92763700D02*
X96183300Y-80447000D01*
%TO.N,Net-(U3-PA5_A9_D9_MISO)*%
X165500000Y-74000000D02*
X165500000Y-105000000D01*
X177000000Y-62500000D02*
X165500000Y-74000000D01*
%TO.N,/bc1*%
X149000000Y-31500000D02*
X150158000Y-32658000D01*
X150158000Y-32658000D02*
X150158000Y-38500000D01*
%TO.N,*%
X60000000Y-65000000D02*
X106500000Y-65000000D01*
%TD*%
M02*
