%TF.GenerationSoftware,KiCad,Pcbnew,9.0.0*%
%TF.CreationDate,2025-04-13T23:06:23-05:00*%
%TF.ProjectId,temperature_sensor,74656d70-6572-4617-9475-72655f73656e,rev?*%
%TF.SameCoordinates,Original*%
%TF.FileFunction,Copper,L1,Top*%
%TF.FilePolarity,Positive*%
%FSLAX46Y46*%
G04 Gerber Fmt 4.6, Leading zero omitted, Abs format (unit mm)*
G04 Created by KiCad (PCBNEW 9.0.0) date 2025-04-13 23:06:23*
%MOMM*%
%LPD*%
G01*
G04 APERTURE LIST*
G04 Aperture macros list*
%AMRoundRect*
0 Rectangle with rounded corners*
0 $1 Rounding radius*
0 $2 $3 $4 $5 $6 $7 $8 $9 X,Y pos of 4 corners*
0 Add a 4 corners polygon primitive as box body*
4,1,4,$2,$3,$4,$5,$6,$7,$8,$9,$2,$3,0*
0 Add four circle primitives for the rounded corners*
1,1,$1+$1,$2,$3*
1,1,$1+$1,$4,$5*
1,1,$1+$1,$6,$7*
1,1,$1+$1,$8,$9*
0 Add four rect primitives between the rounded corners*
20,1,$1+$1,$2,$3,$4,$5,0*
20,1,$1+$1,$4,$5,$6,$7,0*
20,1,$1+$1,$6,$7,$8,$9,0*
20,1,$1+$1,$8,$9,$2,$3,0*%
G04 Aperture macros list end*
%TA.AperFunction,ComponentPad*%
%ADD10C,2.400000*%
%TD*%
%TA.AperFunction,ComponentPad*%
%ADD11O,4.000000X2.000000*%
%TD*%
%TA.AperFunction,ComponentPad*%
%ADD12C,1.100000*%
%TD*%
%TA.AperFunction,ComponentPad*%
%ADD13R,1.100000X1.100000*%
%TD*%
%TA.AperFunction,ComponentPad*%
%ADD14C,2.000000*%
%TD*%
%TA.AperFunction,ComponentPad*%
%ADD15C,1.778000*%
%TD*%
%TA.AperFunction,SMDPad,CuDef*%
%ADD16R,0.558800X1.270000*%
%TD*%
%TA.AperFunction,SMDPad,CuDef*%
%ADD17RoundRect,0.237500X0.237500X-0.300000X0.237500X0.300000X-0.237500X0.300000X-0.237500X-0.300000X0*%
%TD*%
%TA.AperFunction,SMDPad,CuDef*%
%ADD18RoundRect,0.237500X0.300000X0.237500X-0.300000X0.237500X-0.300000X-0.237500X0.300000X-0.237500X0*%
%TD*%
%TA.AperFunction,SMDPad,CuDef*%
%ADD19R,1.070000X3.420000*%
%TD*%
%TA.AperFunction,ComponentPad*%
%ADD20R,1.800000X1.800000*%
%TD*%
%TA.AperFunction,ComponentPad*%
%ADD21C,1.800000*%
%TD*%
%TA.AperFunction,ComponentPad*%
%ADD22C,2.550000*%
%TD*%
%TA.AperFunction,SMDPad,CuDef*%
%ADD23RoundRect,0.237500X-0.300000X-0.237500X0.300000X-0.237500X0.300000X0.237500X-0.300000X0.237500X0*%
%TD*%
%TA.AperFunction,SMDPad,CuDef*%
%ADD24RoundRect,0.500000X-0.500000X0.875000X-0.500000X-0.875000X0.500000X-0.875000X0.500000X0.875000X0*%
%TD*%
%TA.AperFunction,SMDPad,CuDef*%
%ADD25RoundRect,0.275000X-0.975000X-0.275000X0.975000X-0.275000X0.975000X0.275000X-0.975000X0.275000X0*%
%TD*%
%TA.AperFunction,SMDPad,CuDef*%
%ADD26C,1.700000*%
%TD*%
%TA.AperFunction,ComponentPad*%
%ADD27R,1.371600X1.371600*%
%TD*%
%TA.AperFunction,ComponentPad*%
%ADD28C,1.371600*%
%TD*%
%TA.AperFunction,ComponentPad*%
%ADD29R,1.308000X1.308000*%
%TD*%
%TA.AperFunction,ComponentPad*%
%ADD30C,1.308000*%
%TD*%
%TA.AperFunction,ComponentPad*%
%ADD31R,1.158000X1.158000*%
%TD*%
%TA.AperFunction,ComponentPad*%
%ADD32C,1.158000*%
%TD*%
%TA.AperFunction,ComponentPad*%
%ADD33R,1.270000X1.270000*%
%TD*%
%TA.AperFunction,ComponentPad*%
%ADD34C,1.270000*%
%TD*%
%TA.AperFunction,ViaPad*%
%ADD35C,0.600000*%
%TD*%
%TA.AperFunction,Conductor*%
%ADD36C,0.250000*%
%TD*%
G04 APERTURE END LIST*
D10*
%TO.P,DS1,S2*%
%TO.N,N/C*%
X119048300Y-78497000D03*
%TO.P,DS1,S1*%
X46648300Y-78497000D03*
D11*
%TO.P,DS1,K,K*%
%TO.N,Net-(U1-COLLECTOR)*%
X112848300Y-77707000D03*
%TO.P,DS1,A,A*%
%TO.N,Net-(DS1-C86)*%
X52848300Y-77707000D03*
D12*
%TO.P,DS1,28,P/S*%
%TO.N,GND*%
X65703300Y-80447000D03*
%TO.P,DS1,27,C86*%
%TO.N,Net-(DS1-C86)*%
X66973300Y-80447000D03*
%TO.P,DS1,26,V0*%
%TO.N,Net-(DS1-V0)*%
X68243300Y-80447000D03*
%TO.P,DS1,25,V1*%
%TO.N,Net-(DS1-V1)*%
X69513300Y-80447000D03*
%TO.P,DS1,24,V2*%
%TO.N,Net-(DS1-V2)*%
X70783300Y-80447000D03*
%TO.P,DS1,23,V3*%
%TO.N,Net-(DS1-V3)*%
X72053300Y-80447000D03*
%TO.P,DS1,22,V4*%
%TO.N,Net-(DS1-V4)*%
X73323300Y-80447000D03*
%TO.P,DS1,21,CAP2N*%
%TO.N,Net-(DS1-CAP2N)*%
X74593300Y-80447000D03*
%TO.P,DS1,20,CAP2P*%
%TO.N,Net-(DS1-CAP2P)*%
X75863300Y-80447000D03*
%TO.P,DS1,19,CAP1P*%
%TO.N,Net-(DS1-CAP1P)*%
X77133300Y-80447000D03*
%TO.P,DS1,18,CAP1N*%
%TO.N,Net-(DS1-CAP1N)*%
X78403300Y-80447000D03*
%TO.P,DS1,17,CAP3P*%
%TO.N,Net-(DS1-CAP3P)*%
X79673300Y-80447000D03*
%TO.P,DS1,16,VOUT*%
%TO.N,Net-(DS1-VOUT)*%
X80943300Y-80447000D03*
%TO.P,DS1,15,VSS*%
%TO.N,GND*%
X82213300Y-80447000D03*
%TO.P,DS1,14,VDD*%
%TO.N,Net-(DS1-C86)*%
X83483300Y-80447000D03*
%TO.P,DS1,13,DB7*%
%TO.N,Net-(DS1-DB7)*%
X84753300Y-80447000D03*
%TO.P,DS1,12,DB6*%
%TO.N,Net-(DS1-DB6)*%
X86023300Y-80447000D03*
%TO.P,DS1,11,DB5*%
%TO.N,unconnected-(DS1-DB5-Pad11)*%
X87293300Y-80447000D03*
%TO.P,DS1,10,DB4*%
%TO.N,unconnected-(DS1-DB4-Pad10)*%
X88563300Y-80447000D03*
%TO.P,DS1,9,DB3*%
%TO.N,unconnected-(DS1-DB3-Pad9)*%
X89833300Y-80447000D03*
%TO.P,DS1,8,DB2*%
%TO.N,unconnected-(DS1-DB2-Pad8)*%
X91103300Y-80447000D03*
%TO.P,DS1,7,DB1*%
%TO.N,unconnected-(DS1-DB1-Pad7)*%
X92373300Y-80447000D03*
%TO.P,DS1,6,DB0*%
%TO.N,unconnected-(DS1-DB0-Pad6)*%
X93643300Y-80447000D03*
%TO.P,DS1,5,~{RD}/E*%
%TO.N,Net-(DS1-C86)*%
X94913300Y-80447000D03*
%TO.P,DS1,4,~{WR}/R/W*%
%TO.N,Net-(DS1-~{WR}{slash}R{slash}W)*%
X96183300Y-80447000D03*
%TO.P,DS1,3,A0*%
%TO.N,Net-(DS1-A0)*%
X97453300Y-80447000D03*
%TO.P,DS1,2,~{RES}*%
%TO.N,Net-(DS1-~{RES})*%
X98723300Y-80447000D03*
D13*
%TO.P,DS1,1,~{CS1}*%
%TO.N,Net-(DS1-~{CS1})*%
X99993300Y-80447000D03*
%TD*%
D14*
%TO.P,TP7,1,1*%
%TO.N,Net-(DS1-DB7)*%
X49000000Y-119000000D03*
%TD*%
%TO.P,TP6,1,1*%
%TO.N,Net-(DS1-DB6)*%
X56000000Y-119000000D03*
%TD*%
%TO.P,TP2,1,1*%
%TO.N,/bc2*%
X63000000Y-119000000D03*
%TD*%
%TO.P,TP5,1,1*%
%TO.N,Net-(U1-COLLECTOR)*%
X63000000Y-112000000D03*
%TD*%
%TO.P,TP4,1,1*%
%TO.N,Net-(U1-BASE)*%
X56000000Y-112000000D03*
%TD*%
D15*
%TO.P,SW1,1,1*%
%TO.N,/bc1*%
X171599999Y-56500000D03*
%TO.P,SW1,2,2*%
%TO.N,Net-(U3-PA5_A9_D9_MISO)*%
X176300000Y-56500000D03*
%TO.P,SW1,3,3*%
%TO.N,/bc2*%
X181000000Y-56500000D03*
%TD*%
D16*
%TO.P,U1,1,BASE*%
%TO.N,Net-(U1-BASE)*%
X113047500Y-88082800D03*
%TO.P,U1,2,EMITTER*%
%TO.N,GND*%
X114952500Y-88082800D03*
%TO.P,U1,3,COLLECTOR*%
%TO.N,Net-(U1-COLLECTOR)*%
X114000000Y-86000000D03*
%TD*%
D17*
%TO.P,C10,1*%
%TO.N,Net-(DS1-CAP1P)*%
X71000000Y-91500000D03*
%TO.P,C10,2*%
%TO.N,Net-(DS1-CAP1N)*%
X71000000Y-89775000D03*
%TD*%
D18*
%TO.P,RF_interceptor1,1*%
%TO.N,GND*%
X177132500Y-37960000D03*
%TO.P,RF_interceptor1,2*%
%TO.N,Net-(DS1-C86)*%
X175407500Y-37960000D03*
%TD*%
D17*
%TO.P,C11,1*%
%TO.N,Net-(DS1-CAP1N)*%
X77500000Y-91500000D03*
%TO.P,C11,2*%
%TO.N,Net-(DS1-CAP3P)*%
X77500000Y-89775000D03*
%TD*%
D14*
%TO.P,TP3,1,1*%
%TO.N,/bc1*%
X63000000Y-105000000D03*
%TD*%
D17*
%TO.P,C4,1*%
%TO.N,GND*%
X62000000Y-91362500D03*
%TO.P,C4,2*%
%TO.N,Net-(DS1-V0)*%
X62000000Y-89637500D03*
%TD*%
D14*
%TO.P,TP9,1,1*%
%TO.N,Net-(DS1-C86)*%
X49000000Y-105000000D03*
%TD*%
%TO.P,TP1,1,1*%
%TO.N,GND*%
X49000000Y-112000000D03*
%TD*%
D17*
%TO.P,C12,1*%
%TO.N,Net-(DS1-CAP2N)*%
X74000000Y-91500000D03*
%TO.P,C12,2*%
%TO.N,Net-(DS1-CAP2P)*%
X74000000Y-89775000D03*
%TD*%
%TO.P,C5,1*%
%TO.N,GND*%
X58500000Y-91362500D03*
%TO.P,C5,2*%
%TO.N,Net-(DS1-V1)*%
X58500000Y-89637500D03*
%TD*%
D19*
%TO.P,R4,1*%
%TO.N,Net-(U3-PA02_A0_D0)*%
X132000000Y-87500000D03*
%TO.P,R4,2*%
%TO.N,Net-(U1-BASE)*%
X125890000Y-87500000D03*
%TD*%
D20*
%TO.P,R1,1*%
%TO.N,GND*%
X134250000Y-76750000D03*
D21*
%TO.P,R1,2*%
%TO.N,/bc2*%
X137750000Y-76750000D03*
%TO.P,R1,3*%
%TO.N,Net-(DS1-C86)*%
X134250000Y-33250000D03*
D22*
%TO.P,R1,SH1,SHIELD*%
%TO.N,GND*%
X131750000Y-71400000D03*
%TO.P,R1,SH2,SHIELD__1*%
X140250000Y-72600000D03*
%TO.P,R1,SH3,SHIELD__2*%
X131750000Y-38600000D03*
%TO.P,R1,SH4,SHIELD__3*%
X140250000Y-37400000D03*
%TD*%
D23*
%TO.P,C7,1*%
%TO.N,GND*%
X65000000Y-95000000D03*
%TO.P,C7,2*%
%TO.N,Net-(DS1-V3)*%
X66725000Y-95000000D03*
%TD*%
D24*
%TO.P,U3,1,PA02_A0_D0*%
%TO.N,Net-(U3-PA02_A0_D0)*%
X187281700Y-85588000D03*
%TO.P,U3,2,PA4_A1_D1*%
%TO.N,Net-(U3-PA4_A1_D1)*%
X184741700Y-85588000D03*
%TO.P,U3,3,PA10_A2_D2*%
%TO.N,Net-(DS1-~{CS1})*%
X182201700Y-85588000D03*
%TO.P,U3,4,PA11_A3_D3*%
%TO.N,Net-(DS1-~{RES})*%
X179661700Y-85588000D03*
%TO.P,U3,5,PA8_A4_D4_SDA*%
%TO.N,Net-(DS1-DB7)*%
X177121700Y-85588000D03*
%TO.P,U3,6,PA9_A5_D5_SCL*%
%TO.N,Net-(DS1-DB6)*%
X174581700Y-85588000D03*
%TO.P,U3,7,PB08_A6_D6_TX*%
%TO.N,Net-(DS1-A0)*%
X172041700Y-85588000D03*
%TO.P,U3,8,PB09_A7_D7_RX*%
%TO.N,Net-(DS1-~{WR}{slash}R{slash}W)*%
X172041700Y-101753000D03*
%TO.P,U3,9,PA7_A8_D8_SCK*%
%TO.N,Net-(U3-PA7_A8_D8_SCK)*%
X174581700Y-101753000D03*
%TO.P,U3,10,PA5_A9_D9_MISO*%
%TO.N,Net-(U3-PA5_A9_D9_MISO)*%
X177121700Y-101753000D03*
%TO.P,U3,11,PA6_A10_D10_MOSI*%
%TO.N,unconnected-(U3-PA6_A10_D10_MOSI-Pad11)*%
X179661700Y-101753000D03*
%TO.P,U3,12,3V3*%
%TO.N,Net-(DS1-C86)*%
X182201700Y-101753000D03*
%TO.P,U3,13,GND*%
%TO.N,GND*%
X184741700Y-101753000D03*
%TO.P,U3,14,5V*%
%TO.N,unconnected-(U3-5V-Pad14)*%
X187281700Y-101753000D03*
D25*
%TO.P,U3,15,VIN*%
%TO.N,unconnected-(U3-VIN-Pad15)*%
X171022000Y-92500000D03*
%TO.P,U3,16,GND*%
%TO.N,GND*%
X171022000Y-95040000D03*
D26*
%TO.P,U3,17,PA31_SWDIO*%
%TO.N,unconnected-(U3-PA31_SWDIO-Pad17)*%
X188040000Y-92500000D03*
%TO.P,U3,18,PA30_SWCLK*%
%TO.N,unconnected-(U3-PA30_SWCLK-Pad18)*%
X188040000Y-95040000D03*
%TO.P,U3,19,RESET*%
%TO.N,unconnected-(U3-RESET-Pad19)*%
X185500000Y-92500000D03*
%TO.P,U3,20,GND*%
%TO.N,GND*%
X185500000Y-95040000D03*
%TD*%
D27*
%TO.P,R3,1*%
%TO.N,/bc1*%
X150158000Y-38500000D03*
D28*
%TO.P,R3,2*%
%TO.N,GND*%
X161842000Y-38500000D03*
%TD*%
D17*
%TO.P,C9,1*%
%TO.N,Net-(DS1-VOUT)*%
X81000000Y-91500000D03*
%TO.P,C9,2*%
%TO.N,Net-(DS1-C86)*%
X81000000Y-89775000D03*
%TD*%
D14*
%TO.P,TP8,1,1*%
%TO.N,Net-(U3-PA7_A8_D8_SCK)*%
X56000000Y-105000000D03*
%TD*%
D29*
%TO.P,S1,1,1*%
%TO.N,Net-(DS1-C86)*%
X175500000Y-68000000D03*
D30*
%TO.P,S1,2,2*%
%TO.N,Net-(U3-PA7_A8_D8_SCK)*%
X177500000Y-68000000D03*
%TO.P,S1,3,3*%
%TO.N,GND*%
X179500000Y-68000000D03*
%TD*%
D17*
%TO.P,C8,1*%
%TO.N,GND*%
X65500000Y-91362500D03*
%TO.P,C8,2*%
%TO.N,Net-(DS1-V4)*%
X65500000Y-89637500D03*
%TD*%
D31*
%TO.P,R2,1*%
%TO.N,Net-(DS1-C86)*%
X157500000Y-28500000D03*
D32*
%TO.P,R2,2*%
%TO.N,/bc1*%
X154100000Y-28500000D03*
%TD*%
D33*
%TO.P,U5,1,+VS*%
%TO.N,Net-(DS1-C86)*%
X175000000Y-30000000D03*
D34*
%TO.P,U5,2,VOUT*%
%TO.N,Net-(U3-PA4_A1_D1)*%
X176270000Y-27460000D03*
%TO.P,U5,3,GND*%
%TO.N,GND*%
X177540000Y-30000000D03*
%TD*%
D17*
%TO.P,C6,1*%
%TO.N,GND*%
X55500000Y-91362500D03*
%TO.P,C6,2*%
%TO.N,Net-(DS1-V2)*%
X55500000Y-89637500D03*
%TD*%
D35*
%TO.N,Net-(U1-BASE)*%
X119500000Y-90500000D03*
%TO.N,Net-(DS1-V0)*%
X61500000Y-78875000D03*
X67500000Y-78875000D03*
%TO.N,Net-(DS1-V1)*%
X58500000Y-89637500D03*
X68934313Y-81875000D03*
%TO.N,Net-(DS1-V2)*%
X69500000Y-82500000D03*
X55500000Y-89637500D03*
%TO.N,Net-(DS1-V3)*%
X66725000Y-95000000D03*
X71000000Y-82500000D03*
%TO.N,Net-(DS1-V4)*%
X65500000Y-89637500D03*
X72500000Y-82875000D03*
%TO.N,Net-(DS1-CAP2N)*%
X74000000Y-91500000D03*
X74000000Y-82875000D03*
%TO.N,Net-(DS1-CAP2P)*%
X74000000Y-89775000D03*
X75000000Y-82875000D03*
%TO.N,Net-(DS1-CAP1P)*%
X71000000Y-91500000D03*
X76500000Y-82500000D03*
%TO.N,Net-(DS1-CAP1N)*%
X76500000Y-88000000D03*
X77500000Y-91500000D03*
X77500000Y-82500000D03*
%TO.N,Net-(DS1-CAP3P)*%
X78500000Y-82500000D03*
X77500000Y-89775000D03*
%TO.N,Net-(DS1-VOUT)*%
X81000000Y-91500000D03*
X79388208Y-82388208D03*
%TO.N,Net-(DS1-A0)*%
X142500000Y-54000000D03*
X164000000Y-62500000D03*
X156000000Y-73500000D03*
%TO.N,Net-(DS1-~{RES})*%
X107000000Y-111500000D03*
%TO.N,Net-(DS1-DB7)*%
X162500000Y-93000000D03*
X109500000Y-88500000D03*
%TO.N,Net-(DS1-DB6)*%
X174500000Y-83000000D03*
X170000000Y-71000000D03*
X155000000Y-62500000D03*
X128500000Y-68500000D03*
X50500000Y-79500000D03*
%TO.N,Net-(DS1-DB7)*%
X83500000Y-76000000D03*
%TO.N,/bc2*%
X145000000Y-82000000D03*
X142500000Y-106500000D03*
X142000000Y-112000000D03*
X142500000Y-102500000D03*
%TO.N,Net-(U1-COLLECTOR)*%
X96500000Y-98000000D03*
%TO.N,Net-(U1-BASE)*%
X108000000Y-115000000D03*
X111000000Y-89500000D03*
%TO.N,/bc1*%
X114500000Y-90500000D03*
%TO.N,/bc2*%
X142000000Y-76500000D03*
X182000000Y-51500000D03*
%TO.N,Net-(DS1-~{CS1})*%
X150500000Y-80000000D03*
%TO.N,Net-(U3-PA02_A0_D0)*%
X137000000Y-86000000D03*
X186500000Y-72500000D03*
%TO.N,Net-(U3-PA7_A8_D8_SCK)*%
X164500000Y-104000000D03*
X164500000Y-71975000D03*
%TO.N,Net-(DS1-~{WR}{slash}R{slash}W)*%
X108500000Y-97000000D03*
%TO.N,Net-(U3-PA5_A9_D9_MISO)*%
X177000000Y-62500000D03*
X165500000Y-105000000D03*
%TO.N,/bc1*%
X149000000Y-31500000D03*
%TO.N,*%
X106500000Y-65000000D03*
X60000000Y-65000000D03*
%TD*%
D36*
%TO.N,GND*%
X58500000Y-91362500D02*
X58500000Y-94362500D01*
X59068750Y-94931250D02*
X55500000Y-91362500D01*
X58500000Y-94362500D02*
X59068750Y-94931250D01*
X59137500Y-95000000D02*
X59068750Y-94931250D01*
X63000000Y-95000000D02*
X59137500Y-95000000D01*
%TO.N,Net-(U1-BASE)*%
X122500000Y-87500000D02*
X119500000Y-90500000D01*
X125890000Y-87500000D02*
X122500000Y-87500000D01*
%TO.N,Net-(U3-PA7_A8_D8_SCK)*%
X161374000Y-107126000D02*
X164500000Y-104000000D01*
X56000000Y-105000000D02*
X58126000Y-107126000D01*
X58126000Y-107126000D02*
X161374000Y-107126000D01*
%TO.N,Net-(DS1-C86)*%
X81000000Y-82930300D02*
X83483300Y-80447000D01*
X81000000Y-89775000D02*
X81000000Y-82930300D01*
%TO.N,Net-(DS1-V0)*%
X62000000Y-80000000D02*
X62000000Y-89637500D01*
X61500000Y-79500000D02*
X62000000Y-80000000D01*
X61500000Y-78875000D02*
X61500000Y-79500000D01*
X68243300Y-79618300D02*
X67500000Y-78875000D01*
X68243300Y-80447000D02*
X68243300Y-79618300D01*
%TO.N,Net-(DS1-V1)*%
X69513300Y-80447000D02*
X69513300Y-81296013D01*
X69513300Y-81296013D02*
X68934313Y-81875000D01*
%TO.N,Net-(DS1-V2)*%
X70783300Y-81216700D02*
X69500000Y-82500000D01*
X70783300Y-80447000D02*
X70783300Y-81216700D01*
%TO.N,Net-(DS1-V3)*%
X72053300Y-81446700D02*
X71000000Y-82500000D01*
X72053300Y-80447000D02*
X72053300Y-81446700D01*
%TO.N,Net-(DS1-V4)*%
X73323300Y-82051700D02*
X72500000Y-82875000D01*
X73323300Y-80447000D02*
X73323300Y-82051700D01*
%TO.N,Net-(DS1-CAP2N)*%
X74000000Y-81040300D02*
X74000000Y-82875000D01*
X74593300Y-80447000D02*
X74000000Y-81040300D01*
%TO.N,Net-(DS1-CAP2P)*%
X75000000Y-81310300D02*
X75000000Y-82875000D01*
X75863300Y-80447000D02*
X75000000Y-81310300D01*
%TO.N,Net-(DS1-CAP1P)*%
X76500000Y-81080300D02*
X76500000Y-82500000D01*
X77133300Y-80447000D02*
X76500000Y-81080300D01*
%TO.N,Net-(DS1-CAP1N)*%
X72775000Y-88000000D02*
X76500000Y-88000000D01*
X71000000Y-89775000D02*
X72775000Y-88000000D01*
X77500000Y-81350300D02*
X77500000Y-82500000D01*
X78403300Y-80447000D02*
X77500000Y-81350300D01*
%TO.N,Net-(DS1-CAP3P)*%
X78500000Y-81620300D02*
X78500000Y-82500000D01*
X79673300Y-80447000D02*
X78500000Y-81620300D01*
%TO.N,Net-(DS1-VOUT)*%
X79388208Y-82002092D02*
X79388208Y-82388208D01*
X80943300Y-80447000D02*
X79388208Y-82002092D01*
%TO.N,Net-(DS1-A0)*%
X143000000Y-53500000D02*
X142500000Y-54000000D01*
X144000000Y-53500000D02*
X143000000Y-53500000D01*
X155000000Y-53500000D02*
X144000000Y-53500000D01*
X164000000Y-62500000D02*
X155000000Y-53500000D01*
X149874000Y-80259298D02*
X149874000Y-79626000D01*
X149874000Y-79626000D02*
X156000000Y-73500000D01*
X155202702Y-85588000D02*
X149874000Y-80259298D01*
X172041700Y-85588000D02*
X155202702Y-85588000D01*
%TO.N,Net-(DS1-~{RES})*%
X107126000Y-111374000D02*
X107000000Y-111500000D01*
X180211112Y-111374000D02*
X107126000Y-111374000D01*
X188607700Y-102977412D02*
X180211112Y-111374000D01*
X186676000Y-98596888D02*
X188607700Y-100528588D01*
X186676000Y-94552884D02*
X186676000Y-98596888D01*
X185987116Y-93864000D02*
X186676000Y-94552884D01*
X179661700Y-88512816D02*
X185012884Y-93864000D01*
X188607700Y-100528588D02*
X188607700Y-102977412D01*
X179661700Y-85588000D02*
X179661700Y-88512816D01*
X185012884Y-93864000D02*
X185987116Y-93864000D01*
%TO.N,Net-(DS1-DB7)*%
X176795700Y-87289000D02*
X177121700Y-86963000D01*
X168211000Y-87289000D02*
X176795700Y-87289000D01*
X162500000Y-93000000D02*
X168211000Y-87289000D01*
X177121700Y-86963000D02*
X177121700Y-85588000D01*
X98500000Y-99500000D02*
X109500000Y-88500000D01*
X96476892Y-99500000D02*
X98500000Y-99500000D01*
X84753300Y-87776408D02*
X96476892Y-99500000D01*
X84753300Y-80447000D02*
X84753300Y-87776408D01*
%TO.N,Net-(DS1-DB6)*%
X174500000Y-83000000D02*
X174581700Y-83081700D01*
X174581700Y-83081700D02*
X174581700Y-85588000D01*
X161500000Y-62500000D02*
X163000000Y-64000000D01*
X155000000Y-62500000D02*
X161500000Y-62500000D01*
X128500000Y-73766116D02*
X128500000Y-68500000D01*
X115305116Y-86961000D02*
X128500000Y-73766116D01*
X108424298Y-86961000D02*
X115305116Y-86961000D01*
X96759298Y-98626000D02*
X108424298Y-86961000D01*
X86023300Y-88408598D02*
X96240702Y-98626000D01*
X163000000Y-64000000D02*
X170000000Y-71000000D01*
X96240702Y-98626000D02*
X96759298Y-98626000D01*
X86023300Y-80447000D02*
X86023300Y-88408598D01*
X44500000Y-109375248D02*
X44500000Y-85500000D01*
X44500000Y-85500000D02*
X50500000Y-79500000D01*
X56000000Y-119000000D02*
X54124752Y-119000000D01*
X54124752Y-119000000D02*
X44500000Y-109375248D01*
%TO.N,Net-(DS1-DB7)*%
X51680053Y-76000000D02*
X83500000Y-76000000D01*
X41500000Y-86180053D02*
X51680053Y-76000000D01*
X41500000Y-111500000D02*
X41500000Y-86180053D01*
X49000000Y-119000000D02*
X41500000Y-111500000D01*
%TO.N,/bc2*%
X145000000Y-82000000D02*
X139750000Y-76750000D01*
X142500000Y-106500000D02*
X142500000Y-102500000D01*
X142000000Y-112500000D02*
X142000000Y-112000000D01*
X141000000Y-113500000D02*
X142000000Y-112500000D01*
X139750000Y-76750000D02*
X137750000Y-76750000D01*
X135500000Y-119000000D02*
X141000000Y-113500000D01*
X63000000Y-119000000D02*
X135500000Y-119000000D01*
%TO.N,Net-(U1-COLLECTOR)*%
X108500000Y-86000000D02*
X96500000Y-98000000D01*
X114000000Y-86000000D02*
X108500000Y-86000000D01*
X114000000Y-78858700D02*
X112848300Y-77707000D01*
X114000000Y-86000000D02*
X114000000Y-78858700D01*
%TO.N,Net-(U1-BASE)*%
X59000000Y-115000000D02*
X56000000Y-112000000D01*
X108000000Y-115000000D02*
X59000000Y-115000000D01*
X112417200Y-88082800D02*
X111000000Y-89500000D01*
X113047500Y-88082800D02*
X112417200Y-88082800D01*
%TO.N,/bc1*%
X99500000Y-105000000D02*
X114000000Y-90500000D01*
X114000000Y-90500000D02*
X114500000Y-90500000D01*
X63000000Y-105000000D02*
X99500000Y-105000000D01*
%TO.N,/bc2*%
X181000000Y-52500000D02*
X182000000Y-51500000D01*
X181000000Y-56500000D02*
X181000000Y-52500000D01*
X141750000Y-76750000D02*
X142000000Y-76500000D01*
X137750000Y-76750000D02*
X141750000Y-76750000D01*
%TO.N,Net-(DS1-~{CS1})*%
X177988700Y-80000000D02*
X150500000Y-80000000D01*
X182201700Y-84213000D02*
X177988700Y-80000000D01*
X182201700Y-85588000D02*
X182201700Y-84213000D01*
%TO.N,Net-(U3-PA02_A0_D0)*%
X137000000Y-86000000D02*
X135500000Y-87500000D01*
X135500000Y-87500000D02*
X132000000Y-87500000D01*
X187281700Y-73281700D02*
X186500000Y-72500000D01*
X187281700Y-85588000D02*
X187281700Y-73281700D01*
%TO.N,Net-(U3-PA7_A8_D8_SCK)*%
X174581700Y-103128000D02*
X174581700Y-101753000D01*
X173709700Y-104000000D02*
X174581700Y-103128000D01*
X164500000Y-104000000D02*
X173709700Y-104000000D01*
X173525000Y-71975000D02*
X164500000Y-71975000D01*
X177500000Y-68000000D02*
X173525000Y-71975000D01*
%TO.N,Net-(DS1-~{WR}{slash}R{slash}W)*%
X113253000Y-101753000D02*
X108500000Y-97000000D01*
X172041700Y-101753000D02*
X113253000Y-101753000D01*
%TO.N,Net-(U3-PA5_A9_D9_MISO)*%
X177121700Y-103128000D02*
X177121700Y-101753000D01*
X175249700Y-105000000D02*
X177121700Y-103128000D01*
X165500000Y-105000000D02*
X175249700Y-105000000D01*
X176300000Y-61800000D02*
X177000000Y-62500000D01*
X176300000Y-56500000D02*
X176300000Y-61800000D01*
%TO.N,/bc1*%
X153599999Y-38500000D02*
X171599999Y-56500000D01*
X150158000Y-38500000D02*
X153599999Y-38500000D01*
X151100000Y-31500000D02*
X149000000Y-31500000D01*
X154100000Y-28500000D02*
X151100000Y-31500000D01*
%TO.N,Net-(U3-PA4_A1_D1)*%
X184741700Y-35033675D02*
X184741700Y-85588000D01*
X177168025Y-27460000D02*
X184741700Y-35033675D01*
X176270000Y-27460000D02*
X177168025Y-27460000D01*
%TO.N,GND*%
X79160300Y-83500000D02*
X82213300Y-80447000D01*
X68756300Y-83500000D02*
X79160300Y-83500000D01*
X65703300Y-80447000D02*
X68756300Y-83500000D01*
X66301000Y-81044700D02*
X65703300Y-80447000D01*
X66301000Y-90561500D02*
X66301000Y-81044700D01*
X65500000Y-91362500D02*
X66301000Y-90561500D01*
X65500000Y-92500000D02*
X63000000Y-95000000D01*
X65500000Y-91362500D02*
X65500000Y-92500000D01*
X62000000Y-94000000D02*
X63000000Y-95000000D01*
X62000000Y-91362500D02*
X62000000Y-94000000D01*
X65000000Y-95000000D02*
X63000000Y-95000000D01*
X65000000Y-97000000D02*
X65000000Y-95000000D01*
X103035300Y-100000000D02*
X68000000Y-100000000D01*
X114952500Y-88082800D02*
X103035300Y-100000000D01*
X68000000Y-100000000D02*
X65000000Y-97000000D01*
X50326000Y-110674000D02*
X49000000Y-112000000D01*
X183527700Y-104110110D02*
X176963810Y-110674000D01*
X183527700Y-100528588D02*
X183527700Y-104110110D01*
X183051112Y-100052000D02*
X183527700Y-100528588D01*
X176963810Y-110674000D02*
X50326000Y-110674000D01*
X114952500Y-88082800D02*
X126921700Y-100052000D01*
X126921700Y-100052000D02*
X183051112Y-100052000D01*
X115067200Y-88082800D02*
X114952500Y-88082800D01*
X131750000Y-71400000D02*
X115067200Y-88082800D01*
X174900000Y-72600000D02*
X140250000Y-72600000D01*
X179500000Y-68000000D02*
X174900000Y-72600000D01*
X179500000Y-40327500D02*
X179500000Y-68000000D01*
X177132500Y-37960000D02*
X179500000Y-40327500D01*
X160742000Y-37400000D02*
X161842000Y-38500000D01*
X140250000Y-37400000D02*
X160742000Y-37400000D01*
X177132500Y-30407500D02*
X177540000Y-30000000D01*
X177132500Y-37960000D02*
X177132500Y-30407500D01*
X140250000Y-37400000D02*
X140250000Y-72600000D01*
X131750000Y-71400000D02*
X131750000Y-38600000D01*
X131750000Y-74250000D02*
X134250000Y-76750000D01*
X131750000Y-71400000D02*
X131750000Y-74250000D01*
X138400000Y-72600000D02*
X134250000Y-76750000D01*
X140250000Y-72600000D02*
X138400000Y-72600000D01*
X162690000Y-95040000D02*
X140250000Y-72600000D01*
X171022000Y-95040000D02*
X162690000Y-95040000D01*
X185500000Y-100994700D02*
X184741700Y-101753000D01*
X185500000Y-95040000D02*
X185500000Y-100994700D01*
X185500000Y-95040000D02*
X171022000Y-95040000D01*
%TO.N,Net-(DS1-C86)*%
X174526000Y-38841500D02*
X174526000Y-67026000D01*
X174526000Y-67026000D02*
X175500000Y-68000000D01*
X175407500Y-37960000D02*
X174526000Y-38841500D01*
X175000000Y-37552500D02*
X175407500Y-37960000D01*
X175000000Y-30000000D02*
X175000000Y-37552500D01*
X173500000Y-28500000D02*
X175000000Y-30000000D01*
X157500000Y-28500000D02*
X173500000Y-28500000D01*
X152750000Y-33250000D02*
X157500000Y-28500000D01*
X134250000Y-33250000D02*
X152750000Y-33250000D01*
X92173300Y-75326700D02*
X134250000Y-33250000D01*
X92173300Y-77707000D02*
X92173300Y-75326700D01*
X92173300Y-77707000D02*
X94913300Y-80447000D01*
X80743300Y-77707000D02*
X92173300Y-77707000D01*
X80743300Y-77707000D02*
X83483300Y-80447000D01*
X52848300Y-77707000D02*
X80743300Y-77707000D01*
X64233300Y-77707000D02*
X66973300Y-80447000D01*
X52848300Y-77707000D02*
X64233300Y-77707000D01*
X49000000Y-104500000D02*
X52848300Y-100651700D01*
X52848300Y-100651700D02*
X52848300Y-77707000D01*
X49000000Y-105000000D02*
X49000000Y-104500000D01*
X52500000Y-108500000D02*
X49000000Y-105000000D01*
X178500000Y-108500000D02*
X52500000Y-108500000D01*
X182201700Y-104798300D02*
X178500000Y-108500000D01*
X182201700Y-101753000D02*
X182201700Y-104798300D01*
%TO.N,*%
X46648300Y-78497000D02*
X46648300Y-78351700D01*
X46648300Y-78351700D02*
X60000000Y-65000000D01*
X106500000Y-65000000D02*
X106500000Y-65948700D01*
X106500000Y-65948700D02*
X119048300Y-78497000D01*
%TD*%
M02*
