M48
; DRILL file {KiCad 9.0.0} date 2025-04-13T23:06:49-0500
; FORMAT={-:-/ absolute / metric / decimal}
; #@! TF.CreationDate,2025-04-13T23:06:49-05:00
; #@! TF.GenerationSoftware,Kicad,Pcbnew,9.0.0
; #@! TF.FileFunction,Plated,1,2,PTH
FMAT,2
METRIC
; #@! TA.AperFunction,Plated,PTH,ViaDrill
T1C0.300
; #@! TA.AperFunction,Plated,PTH,ComponentDrill
T2C0.650
; #@! TA.AperFunction,Plated,PTH,ComponentDrill
T3C0.700
; #@! TA.AperFunction,Plated,PTH,ComponentDrill
T4C0.762
; #@! TA.AperFunction,Plated,PTH,ComponentDrill
T5C0.800
; #@! TA.AperFunction,Plated,PTH,ComponentDrill
T6C0.864
; #@! TA.AperFunction,Plated,PTH,ComponentDrill
T7C1.000
; #@! TA.AperFunction,Plated,PTH,ComponentDrill
T8C1.200
; #@! TA.AperFunction,Plated,PTH,ComponentDrill
T9C1.270
; #@! TA.AperFunction,Plated,PTH,ComponentDrill
T10C1.600
; #@! TA.AperFunction,Plated,PTH,ComponentDrill
T11C1.700
%
G90
G05
T1
X50.5Y-79.5
X55.5Y-89.638
X58.5Y-89.638
X60.0Y-65.0
X61.5Y-78.875
X65.5Y-89.638
X66.725Y-95.0
X67.5Y-78.875
X68.934Y-81.875
X69.5Y-82.5
X71.0Y-82.5
X71.0Y-91.5
X72.5Y-82.875
X74.0Y-82.875
X74.0Y-89.775
X74.0Y-91.5
X75.0Y-82.875
X76.5Y-82.5
X76.5Y-88.0
X77.5Y-82.5
X77.5Y-89.775
X77.5Y-91.5
X78.5Y-82.5
X79.388Y-82.388
X81.0Y-91.5
X83.5Y-76.0
X96.5Y-98.0
X106.5Y-65.0
X107.0Y-111.5
X108.0Y-115.0
X108.5Y-97.0
X109.5Y-88.5
X111.0Y-89.5
X114.5Y-90.5
X119.5Y-90.5
X128.5Y-68.5
X137.0Y-86.0
X142.0Y-76.5
X142.0Y-112.0
X142.5Y-54.0
X142.5Y-102.5
X142.5Y-106.5
X145.0Y-82.0
X149.0Y-31.5
X150.5Y-80.0
X155.0Y-62.5
X156.0Y-73.5
X162.5Y-93.0
X164.0Y-62.5
X164.5Y-71.975
X164.5Y-104.0
X165.5Y-105.0
X170.0Y-71.0
X174.5Y-83.0
X177.0Y-62.5
X182.0Y-51.5
X186.5Y-72.5
T2
X154.1Y-28.5
X157.5Y-28.5
T3
X65.703Y-80.447
X66.973Y-80.447
X68.243Y-80.447
X69.513Y-80.447
X70.783Y-80.447
X72.053Y-80.447
X73.323Y-80.447
X74.593Y-80.447
X75.863Y-80.447
X77.133Y-80.447
X78.403Y-80.447
X79.673Y-80.447
X80.943Y-80.447
X82.213Y-80.447
X83.483Y-80.447
X84.753Y-80.447
X86.023Y-80.447
X87.293Y-80.447
X88.563Y-80.447
X89.833Y-80.447
X91.103Y-80.447
X92.373Y-80.447
X93.643Y-80.447
X94.913Y-80.447
X96.183Y-80.447
X97.453Y-80.447
X98.723Y-80.447
X99.993Y-80.447
T4
X175.0Y-30.0
X176.27Y-27.46
X177.54Y-30.0
T5
X175.5Y-68.0
X177.5Y-68.0
X179.5Y-68.0
T6
X150.158Y-38.5
X161.842Y-38.5
T7
X49.0Y-105.0
X49.0Y-112.0
X49.0Y-119.0
X56.0Y-105.0
X56.0Y-112.0
X56.0Y-119.0
X63.0Y-105.0
X63.0Y-112.0
X63.0Y-119.0
T8
X134.25Y-33.25
X134.25Y-76.75
X137.75Y-76.75
T9
X171.6Y-56.5
X176.3Y-56.5
X181.0Y-56.5
T10
X46.648Y-78.497
X119.048Y-78.497
T11
X131.75Y-38.6
X131.75Y-71.4
X140.25Y-37.4
X140.25Y-72.6
T7
G00X52.398Y-77.707
M15
G01X53.298Y-77.707
M16
G05
G00X112.398Y-77.707
M15
G01X113.298Y-77.707
M16
G05
M30
