%TF.GenerationSoftware,KiCad,Pcbnew,9.0.0*%
%TF.CreationDate,2025-04-13T23:06:23-05:00*%
%TF.ProjectId,temperature_sensor,74656d70-6572-4617-9475-72655f73656e,rev?*%
%TF.SameCoordinates,Original*%
%TF.FileFunction,Soldermask,Top*%
%TF.FilePolarity,Negative*%
%FSLAX46Y46*%
G04 Gerber Fmt 4.6, Leading zero omitted, Abs format (unit mm)*
G04 Created by KiCad (PCBNEW 9.0.0) date 2025-04-13 23:06:23*
%MOMM*%
%LPD*%
G01*
G04 APERTURE LIST*
G04 Aperture macros list*
%AMRoundRect*
0 Rectangle with rounded corners*
0 $1 Rounding radius*
0 $2 $3 $4 $5 $6 $7 $8 $9 X,Y pos of 4 corners*
0 Add a 4 corners polygon primitive as box body*
4,1,4,$2,$3,$4,$5,$6,$7,$8,$9,$2,$3,0*
0 Add four circle primitives for the rounded corners*
1,1,$1+$1,$2,$3*
1,1,$1+$1,$4,$5*
1,1,$1+$1,$6,$7*
1,1,$1+$1,$8,$9*
0 Add four rect primitives between the rounded corners*
20,1,$1+$1,$2,$3,$4,$5,0*
20,1,$1+$1,$4,$5,$6,$7,0*
20,1,$1+$1,$6,$7,$8,$9,0*
20,1,$1+$1,$8,$9,$2,$3,0*%
G04 Aperture macros list end*
%ADD10C,2.604000*%
%ADD11O,4.204000X2.204000*%
%ADD12C,1.304000*%
%ADD13RoundRect,0.102000X-0.550000X-0.550000X0.550000X-0.550000X0.550000X0.550000X-0.550000X0.550000X0*%
%ADD14C,2.000000*%
%ADD15C,1.778000*%
%ADD16R,0.558800X1.270000*%
%ADD17RoundRect,0.237500X0.237500X-0.300000X0.237500X0.300000X-0.237500X0.300000X-0.237500X-0.300000X0*%
%ADD18RoundRect,0.237500X0.300000X0.237500X-0.300000X0.237500X-0.300000X-0.237500X0.300000X-0.237500X0*%
%ADD19RoundRect,0.102000X0.535000X1.710000X-0.535000X1.710000X-0.535000X-1.710000X0.535000X-1.710000X0*%
%ADD20RoundRect,0.102000X0.900000X-0.900000X0.900000X0.900000X-0.900000X0.900000X-0.900000X-0.900000X0*%
%ADD21C,2.004000*%
%ADD22C,2.754000*%
%ADD23RoundRect,0.237500X-0.300000X-0.237500X0.300000X-0.237500X0.300000X0.237500X-0.300000X0.237500X0*%
%ADD24RoundRect,0.525400X-0.525400X0.900400X-0.525400X-0.900400X0.525400X-0.900400X0.525400X0.900400X0*%
%ADD25RoundRect,0.300400X-1.000400X-0.300400X1.000400X-0.300400X1.000400X0.300400X-1.000400X0.300400X0*%
%ADD26C,1.700000*%
%ADD27R,1.371600X1.371600*%
%ADD28C,1.371600*%
%ADD29C,1.500000*%
%ADD30RoundRect,0.102000X-0.654000X-0.654000X0.654000X-0.654000X0.654000X0.654000X-0.654000X0.654000X0*%
%ADD31C,1.512000*%
%ADD32RoundRect,0.102000X0.579000X0.579000X-0.579000X0.579000X-0.579000X-0.579000X0.579000X-0.579000X0*%
%ADD33C,1.362000*%
%ADD34RoundRect,0.102000X-0.635000X-0.635000X0.635000X-0.635000X0.635000X0.635000X-0.635000X0.635000X0*%
%ADD35C,1.474000*%
G04 APERTURE END LIST*
D10*
%TO.C,DS1*%
X119048300Y-78497000D03*
X46648300Y-78497000D03*
D11*
X112848300Y-77707000D03*
X52848300Y-77707000D03*
D12*
X65703300Y-80447000D03*
X66973300Y-80447000D03*
X68243300Y-80447000D03*
X69513300Y-80447000D03*
X70783300Y-80447000D03*
X72053300Y-80447000D03*
X73323300Y-80447000D03*
X74593300Y-80447000D03*
X75863300Y-80447000D03*
X77133300Y-80447000D03*
X78403300Y-80447000D03*
X79673300Y-80447000D03*
X80943300Y-80447000D03*
X82213300Y-80447000D03*
X83483300Y-80447000D03*
X84753300Y-80447000D03*
X86023300Y-80447000D03*
X87293300Y-80447000D03*
X88563300Y-80447000D03*
X89833300Y-80447000D03*
X91103300Y-80447000D03*
X92373300Y-80447000D03*
X93643300Y-80447000D03*
X94913300Y-80447000D03*
X96183300Y-80447000D03*
X97453300Y-80447000D03*
X98723300Y-80447000D03*
D13*
X99993300Y-80447000D03*
%TD*%
D14*
%TO.C,TP7*%
X49000000Y-119000000D03*
%TD*%
%TO.C,TP6*%
X56000000Y-119000000D03*
%TD*%
%TO.C,TP2*%
X63000000Y-119000000D03*
%TD*%
%TO.C,TP5*%
X63000000Y-112000000D03*
%TD*%
%TO.C,TP4*%
X56000000Y-112000000D03*
%TD*%
D15*
%TO.C,SW1*%
X171599999Y-56500000D03*
X176300000Y-56500000D03*
X181000000Y-56500000D03*
%TD*%
D16*
%TO.C,U1*%
X113047500Y-88082800D03*
X114952500Y-88082800D03*
X114000000Y-86000000D03*
%TD*%
D17*
%TO.C,C10*%
X71000000Y-91500000D03*
X71000000Y-89775000D03*
%TD*%
D18*
%TO.C,RF_interceptor1*%
X177132500Y-37960000D03*
X175407500Y-37960000D03*
%TD*%
D17*
%TO.C,C11*%
X77500000Y-91500000D03*
X77500000Y-89775000D03*
%TD*%
D14*
%TO.C,TP3*%
X63000000Y-105000000D03*
%TD*%
D17*
%TO.C,C4*%
X62000000Y-91362500D03*
X62000000Y-89637500D03*
%TD*%
D14*
%TO.C,TP9*%
X49000000Y-105000000D03*
%TD*%
%TO.C,TP1*%
X49000000Y-112000000D03*
%TD*%
D17*
%TO.C,C12*%
X74000000Y-91500000D03*
X74000000Y-89775000D03*
%TD*%
%TO.C,C5*%
X58500000Y-91362500D03*
X58500000Y-89637500D03*
%TD*%
D19*
%TO.C,R4*%
X132000000Y-87500000D03*
X125890000Y-87500000D03*
%TD*%
D20*
%TO.C,R1*%
X134250000Y-76750000D03*
D21*
X137750000Y-76750000D03*
X134250000Y-33250000D03*
D22*
X131750000Y-71400000D03*
X140250000Y-72600000D03*
X131750000Y-38600000D03*
X140250000Y-37400000D03*
%TD*%
D23*
%TO.C,C7*%
X65000000Y-95000000D03*
X66725000Y-95000000D03*
%TD*%
D24*
%TO.C,U3*%
X187281700Y-85588000D03*
X184741700Y-85588000D03*
X182201700Y-85588000D03*
X179661700Y-85588000D03*
X177121700Y-85588000D03*
X174581700Y-85588000D03*
X172041700Y-85588000D03*
X172041700Y-101753000D03*
X174581700Y-101753000D03*
X177121700Y-101753000D03*
X179661700Y-101753000D03*
X182201700Y-101753000D03*
X184741700Y-101753000D03*
X187281700Y-101753000D03*
D25*
X171022000Y-92500000D03*
X171022000Y-95040000D03*
D26*
X188040000Y-92500000D03*
X188040000Y-95040000D03*
X185500000Y-92500000D03*
X185500000Y-95040000D03*
%TD*%
D27*
%TO.C,R3*%
X150158000Y-38500000D03*
D28*
X161842000Y-38500000D03*
%TD*%
D17*
%TO.C,C9*%
X81000000Y-91500000D03*
X81000000Y-89775000D03*
%TD*%
D14*
%TO.C,TP8*%
X56000000Y-105000000D03*
%TD*%
D29*
%TO.C,S1*%
X173400000Y-68000000D03*
X181600000Y-68000000D03*
D30*
X175500000Y-68000000D03*
D31*
X177500000Y-68000000D03*
X179500000Y-68000000D03*
%TD*%
D17*
%TO.C,C8*%
X65500000Y-91362500D03*
X65500000Y-89637500D03*
%TD*%
D32*
%TO.C,R2*%
X157500000Y-28500000D03*
D33*
X154100000Y-28500000D03*
%TD*%
D34*
%TO.C,U5*%
X175000000Y-30000000D03*
D35*
X176270000Y-27460000D03*
X177540000Y-30000000D03*
%TD*%
D17*
%TO.C,C6*%
X55500000Y-91362500D03*
X55500000Y-89637500D03*
%TD*%
M02*
